<?xml version="1.0" encoding="utf-8"?><!-- Uploaded to: SVG Repo, www.svgrepo.com, Generator: SVG Repo Mixer Tools -->
<svg version="1.1" id="Uploaded to svgrepo.com" xmlns="http://www.w3.org/2000/svg" xmlns:xlink="http://www.w3.org/1999/xlink" 
	 width="800px" height="800px" viewBox="0 0 32 32" xml:space="preserve">
<style type="text/css">
	.feather_een{fill:#0B1719;}
</style>
<path class="feather_een" d="M20,13.432v0.135C20,13.806,19.806,14,19.567,14H8.432C8.194,14,8,13.806,8,13.568v-0.135
	C8,13.194,8.194,13,8.432,13h11.135C19.806,13,20,13.194,20,13.432z M8.432,16h11.135C19.806,16,20,15.806,20,15.568v-0.135
	C20,15.194,19.806,15,19.567,15H8.432C8.194,15,8,15.194,8,15.432v0.135C8,15.806,8.194,16,8.432,16z M23.567,6H12.432
	C12.194,6,12,5.806,12,5.568V5.432C12,5.194,12.194,5,12.432,5h11.135C23.806,5,24,5.194,24,5.432v0.135C24,5.806,23.806,6,23.567,6
	z M23,22.977l-0.107,0.078c-0.17,0.124-0.218,0.35-0.132,0.541c0.258,0.57,0.262,1.22,0.02,1.774
	c-0.084,0.192-0.036,0.416,0.134,0.54l0.106,0.077c0.225,0.163,0.54,0.073,0.654-0.18c0.376-0.838,0.371-1.798-0.023-2.653
	C23.537,22.902,23.224,22.813,23,22.977z M10,9h18.793c0.445,0,0.669-0.539,0.354-0.854L28,7V4c0-1.105-0.895-2-2-2H10
	C8.895,2,8,2.895,8,4v3C8,8.105,8.895,9,10,9z M10,3h16c0.552,0,1,0.448,1,1v3.414L27.586,8H10C9.448,8,9,7.552,9,7V4
	C9,3.448,9.448,3,10,3z M24,17v-5c0-1.105-0.895-2-2-2H6c-1.105,0-2,0.895-2,2v5l-1.146,1.146C2.539,18.461,2.762,19,3.207,19H22
	C23.105,19,24,18.105,24,17z M5,17.414V12c0-0.552,0.448-1,1-1h16c0.552,0,1,0.448,1,1v5c0,0.552-0.448,1-1,1H4.414L5,17.414z
	 M28,27v-5c0-1.105-0.895-2-2-2h-7c-1.105,0-2,0.895-2,2v5c0,1.105,0.895,2,2,2h9.793c0.445,0,0.669-0.539,0.354-0.854L28,27z
	 M18,27v-5c0-0.552,0.448-1,1-1h7c0.552,0,1,0.448,1,1v5.414L27.586,28H19C18.448,28,18,27.552,18,27z M22,23.5
	c0,0.276-0.224,0.5-0.5,0.5S21,23.776,21,23.5s0.224-0.5,0.5-0.5S22,23.224,22,23.5z M22,25.5c0,0.276-0.224,0.5-0.5,0.5
	S21,25.776,21,25.5s0.224-0.5,0.5-0.5S22,25.224,22,25.5z"/>
</svg>